<svg width="160" height="28" viewBox="0 0 160 28" fill="none" xmlns="http://www.w3.org/2000/svg">
<g filter="url(#filter0_d)">
<path d="M12.294 0.592H15.596L17.676 6.702L19.756 0.592H23.084L19.938 8.99L22.278 14.892L27.504 0.539999H31.404L23.89 19H20.874L17.676 11.252L14.478 19H11.462L4 0.539999H7.848L13.1 14.892L15.388 8.99L12.294 0.592ZM38.3793 19.26C37.2873 19.26 36.2993 19.078 35.4153 18.714C34.5313 18.3327 33.7773 17.8213 33.1533 17.18C32.5293 16.5387 32.044 15.7933 31.6973 14.944C31.368 14.0947 31.2033 13.202 31.2033 12.266C31.2033 11.2953 31.368 10.3853 31.6973 9.536C32.0266 8.66933 32.5033 7.91533 33.1273 7.274C33.7513 6.61533 34.5053 6.09533 35.3893 5.714C36.2906 5.33267 37.296 5.142 38.4053 5.142C39.5146 5.142 40.5026 5.33267 41.3693 5.714C42.2533 6.09533 42.9986 6.60667 43.6053 7.248C44.2293 7.88933 44.6973 8.63467 45.0093 9.484C45.3386 10.3333 45.5033 11.2173 45.5033 12.136C45.5033 12.3613 45.4946 12.578 45.4773 12.786C45.4773 12.994 45.46 13.1673 45.4253 13.306H34.8953C34.9473 13.8433 35.0773 14.32 35.2853 14.736C35.4933 15.152 35.762 15.5073 36.0913 15.802C36.4206 16.0967 36.7933 16.322 37.2093 16.478C37.6253 16.634 38.0586 16.712 38.5093 16.712C39.2026 16.712 39.8526 16.5473 40.4593 16.218C41.0833 15.8713 41.508 15.4207 41.7333 14.866L44.7233 15.698C44.2206 16.738 43.4146 17.596 42.3053 18.272C41.2133 18.9307 39.9046 19.26 38.3793 19.26ZM41.9153 11.044C41.8286 10.0213 41.4473 9.20667 40.7713 8.6C40.1126 7.976 39.3066 7.664 38.3533 7.664C37.8853 7.664 37.4433 7.75067 37.0273 7.924C36.6286 8.08 36.2733 8.30533 35.9613 8.6C35.6493 8.89467 35.3893 9.25 35.1813 9.666C34.9906 10.082 34.878 10.5413 34.8433 11.044H41.9153ZM56.1538 19.26C55.1138 19.26 54.1864 19.026 53.3718 18.558C52.5571 18.09 51.9158 17.4487 51.4478 16.634V19H48.4058V0.0199995H51.8898V7.768C52.3751 6.936 53.0078 6.29467 53.7878 5.844C54.5851 5.376 55.5124 5.142 56.5698 5.142C57.4538 5.142 58.2598 5.33267 58.9878 5.714C59.7158 6.09533 60.3398 6.60667 60.8598 7.248C61.3971 7.88933 61.8044 8.64333 62.0818 9.51C62.3764 10.3767 62.5238 11.2867 62.5238 12.24C62.5238 13.228 62.3591 14.1467 62.0298 14.996C61.7178 15.8453 61.2758 16.5907 60.7038 17.232C60.1318 17.856 59.4558 18.35 58.6758 18.714C57.8958 19.078 57.0551 19.26 56.1538 19.26ZM55.1918 16.296C55.7464 16.296 56.2578 16.192 56.7258 15.984C57.1938 15.7587 57.5924 15.464 57.9218 15.1C58.2511 14.736 58.5024 14.3113 58.6758 13.826C58.8664 13.3407 58.9618 12.8207 58.9618 12.266C58.9618 11.7113 58.8751 11.1827 58.7018 10.68C58.5284 10.1773 58.2771 9.73533 57.9478 9.354C57.6358 8.97267 57.2631 8.66933 56.8298 8.444C56.3964 8.21867 55.9198 8.106 55.3998 8.106C54.6198 8.106 53.9178 8.366 53.2938 8.886C52.6871 9.38867 52.2191 10.0127 51.8898 10.758V14.008C52.0111 14.3547 52.1844 14.6667 52.4098 14.944C52.6524 15.2213 52.9211 15.464 53.2158 15.672C53.5104 15.8627 53.8311 16.0187 54.1778 16.14C54.5244 16.244 54.8624 16.296 55.1918 16.296Z" fill="#2196F3"/>
<path d="M84.0264 5.376C83.905 5.25467 83.6797 5.09 83.3504 4.882C83.0384 4.674 82.6484 4.47467 82.1804 4.284C81.7297 4.076 81.2357 3.90267 80.6984 3.764C80.161 3.62533 79.615 3.556 79.0604 3.556C78.0724 3.556 77.3357 3.738 76.8504 4.102C76.365 4.466 76.1224 4.97733 76.1224 5.636C76.1224 6.01733 76.209 6.338 76.3824 6.598C76.573 6.84067 76.8417 7.05733 77.1884 7.248C77.535 7.43867 77.9684 7.612 78.4884 7.768C79.0257 7.924 79.641 8.08867 80.3344 8.262C81.2357 8.50467 82.0504 8.76467 82.7784 9.042C83.5237 9.31933 84.1477 9.666 84.6504 10.082C85.1704 10.498 85.569 11.0007 85.8464 11.59C86.1237 12.162 86.2624 12.8727 86.2624 13.722C86.2624 14.71 86.0717 15.5593 85.6904 16.27C85.3264 16.9633 84.8237 17.5267 84.1824 17.96C83.5584 18.3933 82.8304 18.714 81.9984 18.922C81.1837 19.1127 80.3257 19.208 79.4244 19.208C78.0377 19.208 76.6684 19 75.3164 18.584C73.9644 18.168 72.751 17.5787 71.6764 16.816L73.2624 13.722C73.4184 13.878 73.6957 14.086 74.0944 14.346C74.5104 14.5887 74.9957 14.84 75.5504 15.1C76.105 15.3427 76.7204 15.5507 77.3964 15.724C78.0724 15.8973 78.7657 15.984 79.4764 15.984C81.4524 15.984 82.4404 15.3513 82.4404 14.086C82.4404 13.6873 82.3277 13.3493 82.1024 13.072C81.877 12.7947 81.5564 12.552 81.1404 12.344C80.7244 12.136 80.2217 11.9453 79.6324 11.772C79.043 11.5987 78.3844 11.408 77.6564 11.2C76.7724 10.9573 76.001 10.6973 75.3424 10.42C74.701 10.1253 74.1637 9.78733 73.7304 9.406C73.297 9.00733 72.9677 8.55667 72.7424 8.054C72.5344 7.534 72.4304 6.91867 72.4304 6.208C72.4304 5.272 72.6037 4.44 72.9504 3.712C73.297 2.984 73.7737 2.37733 74.3804 1.892C75.0044 1.40667 75.7237 1.04267 76.5384 0.799999C77.353 0.539999 78.2284 0.409999 79.1644 0.409999C80.4644 0.409999 81.6604 0.617999 82.7524 1.034C83.8444 1.43267 84.7977 1.90933 85.6124 2.464L84.0264 5.376ZM97.4273 18.298C96.9593 18.506 96.3873 18.714 95.7113 18.922C95.0353 19.13 94.3247 19.234 93.5793 19.234C93.094 19.234 92.6347 19.1733 92.2013 19.052C91.7853 18.9307 91.4127 18.74 91.0833 18.48C90.7713 18.2027 90.52 17.856 90.3293 17.44C90.1387 17.0067 90.0433 16.4867 90.0433 15.88V8.054H88.2493V5.376H90.0433V0.956H93.5273V5.376H96.3873V8.054H93.5273V14.71C93.5273 15.1953 93.6487 15.542 93.8913 15.75C94.1513 15.9407 94.4633 16.036 94.8273 16.036C95.1913 16.036 95.5467 15.9753 95.8933 15.854C96.24 15.7327 96.5173 15.6287 96.7253 15.542L97.4273 18.298ZM104.182 19.26C102.778 19.26 101.712 18.8093 100.984 17.908C100.256 17.0067 99.8919 15.672 99.8919 13.904V5.376H103.376V13.15C103.376 15.2473 104.13 16.296 105.638 16.296C106.314 16.296 106.964 16.0967 107.588 15.698C108.229 15.282 108.749 14.658 109.148 13.826V5.376H112.632V14.996C112.632 15.36 112.693 15.62 112.814 15.776C112.953 15.932 113.169 16.0187 113.464 16.036V19C113.117 19.0693 112.823 19.1127 112.58 19.13C112.355 19.1473 112.147 19.156 111.956 19.156C111.332 19.156 110.821 19.0173 110.422 18.74C110.041 18.4453 109.815 18.0467 109.746 17.544L109.668 16.452C109.061 17.388 108.281 18.09 107.328 18.558C106.375 19.026 105.326 19.26 104.182 19.26ZM122.516 19.26C121.58 19.26 120.713 19.078 119.916 18.714C119.119 18.35 118.434 17.8473 117.862 17.206C117.29 16.5647 116.839 15.8193 116.51 14.97C116.198 14.1033 116.042 13.176 116.042 12.188C116.042 11.2 116.189 10.2813 116.484 9.432C116.796 8.58267 117.221 7.83733 117.758 7.196C118.295 6.55467 118.937 6.052 119.682 5.688C120.427 5.324 121.242 5.142 122.126 5.142C123.131 5.142 124.033 5.38467 124.83 5.87C125.645 6.35533 126.277 6.988 126.728 7.768V0.0199995H130.212V14.996C130.212 15.36 130.273 15.62 130.394 15.776C130.515 15.932 130.723 16.0187 131.018 16.036V19C130.411 19.1213 129.917 19.182 129.536 19.182C128.912 19.182 128.401 19.026 128.002 18.714C127.603 18.402 127.378 17.9947 127.326 17.492L127.248 16.634C126.745 17.5007 126.061 18.1593 125.194 18.61C124.345 19.0433 123.452 19.26 122.516 19.26ZM123.426 16.296C123.755 16.296 124.093 16.244 124.44 16.14C124.787 16.0187 125.107 15.854 125.402 15.646C125.697 15.438 125.957 15.1953 126.182 14.918C126.425 14.6407 126.607 14.3373 126.728 14.008V10.758C126.589 10.3767 126.39 10.03 126.13 9.718C125.887 9.38867 125.601 9.11133 125.272 8.886C124.96 8.64333 124.622 8.45267 124.258 8.314C123.911 8.17533 123.565 8.106 123.218 8.106C122.698 8.106 122.213 8.21867 121.762 8.444C121.329 8.66933 120.956 8.98133 120.644 9.38C120.332 9.76133 120.089 10.2033 119.916 10.706C119.743 11.2087 119.656 11.7287 119.656 12.266C119.656 12.838 119.751 13.3667 119.942 13.852C120.133 14.3373 120.393 14.762 120.722 15.126C121.051 15.49 121.441 15.776 121.892 15.984C122.36 16.192 122.871 16.296 123.426 16.296ZM134.412 19V5.376H137.896V19H134.412ZM134.412 3.478V0.0199995H137.896V3.478H134.412ZM148.111 19.26C147.002 19.26 146.005 19.0693 145.121 18.688C144.237 18.3067 143.483 17.7953 142.859 17.154C142.252 16.4953 141.784 15.7413 141.455 14.892C141.126 14.0427 140.961 13.15 140.961 12.214C140.961 11.2607 141.126 10.3593 141.455 9.51C141.784 8.66067 142.252 7.91533 142.859 7.274C143.483 6.61533 144.237 6.09533 145.121 5.714C146.005 5.33267 147.002 5.142 148.111 5.142C149.22 5.142 150.208 5.33267 151.075 5.714C151.959 6.09533 152.704 6.61533 153.311 7.274C153.935 7.91533 154.412 8.66067 154.741 9.51C155.07 10.3593 155.235 11.2607 155.235 12.214C155.235 13.15 155.07 14.0427 154.741 14.892C154.412 15.7413 153.944 16.4953 153.337 17.154C152.73 17.7953 151.985 18.3067 151.101 18.688C150.217 19.0693 149.22 19.26 148.111 19.26ZM144.549 12.214C144.549 12.8207 144.636 13.3753 144.809 13.878C145 14.3633 145.251 14.788 145.563 15.152C145.892 15.516 146.274 15.802 146.707 16.01C147.14 16.2007 147.608 16.296 148.111 16.296C148.614 16.296 149.082 16.2007 149.515 16.01C149.948 15.802 150.321 15.516 150.633 15.152C150.962 14.788 151.214 14.3547 151.387 13.852C151.578 13.3493 151.673 12.7947 151.673 12.188C151.673 11.5987 151.578 11.0527 151.387 10.55C151.214 10.0473 150.962 9.614 150.633 9.25C150.321 8.886 149.948 8.60867 149.515 8.418C149.082 8.21 148.614 8.106 148.111 8.106C147.608 8.106 147.14 8.21 146.707 8.418C146.274 8.626 145.892 8.912 145.563 9.276C145.251 9.64 145 10.0733 144.809 10.576C144.636 11.0787 144.549 11.6247 144.549 12.214Z" fill="black"/>
</g>
<defs>
<filter id="filter0_d" x="0" y="0.0200195" width="159.235" height="27.24" filterUnits="userSpaceOnUse" color-interpolation-filters="sRGB">
<feFlood flood-opacity="0" result="BackgroundImageFix"/>
<feColorMatrix in="SourceAlpha" type="matrix" values="0 0 0 0 0 0 0 0 0 0 0 0 0 0 0 0 0 0 127 0"/>
<feOffset dy="4"/>
<feGaussianBlur stdDeviation="2"/>
<feColorMatrix type="matrix" values="0 0 0 0 0 0 0 0 0 0 0 0 0 0 0 0 0 0 0.25 0"/>
<feBlend mode="normal" in2="BackgroundImageFix" result="effect1_dropShadow"/>
<feBlend mode="normal" in="SourceGraphic" in2="effect1_dropShadow" result="shape"/>
</filter>
</defs>
</svg>
